<svg width="32" height="32" viewBox="0 0 32 32" fill="none" xmlns="http://www.w3.org/2000/svg">
<path fill-rule="evenodd" clip-rule="evenodd" d="M30 16C30 16.2652 29.8946 16.5196 29.7071 16.7071C29.5196 16.8947 29.2652 17 29 17H5.414L11.708 23.292C11.8958 23.4798 12.0013 23.7345 12.0013 24C12.0013 24.2656 11.8958 24.5202 11.708 24.708C11.5202 24.8958 11.2655 25.0013 11 25.0013C10.7344 25.0013 10.4798 24.8958 10.292 24.708L2.292 16.708C2.19887 16.6151 2.12498 16.5048 2.07457 16.3833C2.02416 16.2618 1.99821 16.1316 1.99821 16C1.99821 15.8685 2.02416 15.7382 2.07457 15.6168C2.12498 15.4953 2.19887 15.3849 2.292 15.292L10.292 7.29202C10.4798 7.10425 10.7344 6.99876 11 6.99876C11.2655 6.99876 11.5202 7.10425 11.708 7.29202C11.8958 7.47979 12.0013 7.73447 12.0013 8.00002C12.0013 8.26557 11.8958 8.52025 11.708 8.70802L5.414 15H29C29.2652 15 29.5196 15.1054 29.7071 15.2929C29.8946 15.4804 30 15.7348 30 16Z" fill="#102A43"/>
</svg>
