<svg width="20" height="20" viewBox="0 0 20 20" fill="none" xmlns="http://www.w3.org/2000/svg">
<path d="M13.9466 9C14.2322 9.08333 14.5041 9.19643 14.7624 9.33929C15.0206 9.48214 15.291 9.69941 15.5736 9.99107C15.8561 10.2827 16.0977 10.6265 16.2982 11.0223C16.4987 11.4182 16.6658 11.9301 16.7995 12.558C16.9332 13.186 17 13.8899 17 14.6696C17 15.5863 16.6962 16.3705 16.0885 17.0223C15.4809 17.6741 14.7487 18 13.8919 18H6.10807C5.2513 18 4.5191 17.6741 3.91146 17.0223C3.30382 16.3705 3 15.5863 3 14.6696C3 13.8899 3.06684 13.186 3.20052 12.558C3.3342 11.9301 3.5013 11.4182 3.70182 11.0223C3.90234 10.6265 4.14388 10.2827 4.42643 9.99107C4.70898 9.69941 4.97938 9.48214 5.23763 9.33929C5.49588 9.19643 5.7678 9.08333 6.05339 9C5.57335 8.25595 5.33333 7.44643 5.33333 6.57143C5.33333 5.95238 5.45638 5.36161 5.70247 4.79911C5.94857 4.23661 6.28125 3.75 6.70052 3.33929C7.11979 2.92857 7.61654 2.60268 8.19075 2.36161C8.76497 2.12054 9.36806 2 10 2C10.6319 2 11.235 2.12054 11.8092 2.36161C12.3835 2.60268 12.8802 2.92857 13.2995 3.33929C13.7188 3.75 14.0514 4.23661 14.2975 4.79911C14.5436 5.36161 14.6667 5.95238 14.6667 6.57143C14.6667 7.44643 14.4266 8.25595 13.9466 9ZM10 3.14286C9.03385 3.14286 8.20898 3.47768 7.52539 4.14732C6.8418 4.81696 6.5 5.625 6.5 6.57143C6.5 7.51786 6.8418 8.32589 7.52539 8.99554C8.20898 9.66518 9.03385 10 10 10C10.9661 10 11.791 9.66518 12.4746 8.99554C13.1582 8.32589 13.5 7.51786 13.5 6.57143C13.5 5.625 13.1582 4.81696 12.4746 4.14732C11.791 3.47768 10.9661 3.14286 10 3.14286ZM13.8919 16.8571C14.4266 16.8571 14.8839 16.6443 15.2637 16.2188C15.6434 15.7932 15.8333 15.2768 15.8333 14.6696C15.8333 13.247 15.5948 12.125 15.1178 11.3036C14.6408 10.4821 13.9557 10.0506 13.0625 10.0089C12.1814 10.7649 11.1606 11.1429 10 11.1429C8.83941 11.1429 7.81858 10.7649 6.9375 10.0089C6.04427 10.0506 5.35916 10.4821 4.88216 11.3036C4.40516 12.125 4.16667 13.247 4.16667 14.6696C4.16667 15.2768 4.35655 15.7932 4.73633 16.2188C5.1161 16.6443 5.57335 16.8571 6.10807 16.8571H13.8919Z" fill="#3A6EA5" stroke="#3A6EA5" stroke-width="0.2"/>
</svg>
