<svg width="20" height="20" viewBox="0 0 20 20" fill="none" xmlns="http://www.w3.org/2000/svg">
<path d="M9.795 1.88125L10 1.875C10.7934 1.87488 11.5571 2.17654 12.1363 2.7188C12.7155 3.26106 13.0667 4.00331 13.1187 4.795L13.125 5V6.25H14.375C14.8723 6.25 15.3492 6.44754 15.7008 6.79917C16.0525 7.15081 16.25 7.62772 16.25 8.125V15.625C16.25 16.1223 16.0525 16.5992 15.7008 16.9508C15.3492 17.3025 14.8723 17.5 14.375 17.5H5.625C5.12772 17.5 4.65081 17.3025 4.29917 16.9508C3.94754 16.5992 3.75 16.1223 3.75 15.625V8.125C3.75 7.62772 3.94754 7.15081 4.29917 6.79917C4.65081 6.44754 5.12772 6.25 5.625 6.25H6.875V5C6.87488 4.2066 7.17654 3.44286 7.7188 2.86369C8.26106 2.28453 9.00331 1.9333 9.795 1.88125ZM14.375 7.5H5.625C5.45924 7.5 5.30027 7.56585 5.18306 7.68306C5.06585 7.80027 5 7.95924 5 8.125V15.625C5 15.7908 5.06585 15.9497 5.18306 16.0669C5.30027 16.1842 5.45924 16.25 5.625 16.25H14.375C14.5408 16.25 14.6997 16.1842 14.8169 16.0669C14.9342 15.9497 15 15.7908 15 15.625V8.125C15 7.95924 14.9342 7.80027 14.8169 7.68306C14.6997 7.56585 14.5408 7.5 14.375 7.5ZM10 10.625C10.3315 10.625 10.6495 10.7567 10.8839 10.9911C11.1183 11.2255 11.25 11.5435 11.25 11.875C11.25 12.2065 11.1183 12.5245 10.8839 12.7589C10.6495 12.9933 10.3315 13.125 10 13.125C9.66848 13.125 9.35054 12.9933 9.11612 12.7589C8.8817 12.5245 8.75 12.2065 8.75 11.875C8.75 11.5435 8.8817 11.2255 9.11612 10.9911C9.35054 10.7567 9.66848 10.625 10 10.625ZM10.18 3.13375L10 3.125C9.5339 3.12502 9.08451 3.29865 8.73948 3.61202C8.39444 3.9254 8.1785 4.35605 8.13375 4.82L8.125 5V6.25H11.875V5C11.875 4.5339 11.7014 4.08451 11.388 3.73948C11.0746 3.39444 10.644 3.1785 10.18 3.13375Z" fill="#3A6EA5" stroke="#3A6EA5" stroke-width="0.2"/>
</svg>
